<mxfile host="app.diagrams.net" modified="2024-01-05T20:32:56.204Z" agent="Mozilla/5.0 (Windows NT 10.0; Win64; x64) AppleWebKit/537.36 (KHTML, like Gecko) Chrome/120.0.0.0 Safari/537.36" etag="hKtDurm5big8Aw90siF1" version="22.1.17" type="google">
  <diagram name="Page-1" id="zJb0LHpBHlhxOD_O-Jcd">
    <mxGraphModel grid="1" page="1" gridSize="10" guides="1" tooltips="1" connect="1" arrows="1" fold="1" pageScale="1" pageWidth="850" pageHeight="1100" math="0" shadow="0">
      <root>
        <mxCell id="0" />
        <mxCell id="1" parent="0" />
        <mxCell id="z0_4UOMmBrfsEpAcyiNp-1" value="User" style="swimlane;childLayout=stackLayout;horizontal=1;startSize=30;horizontalStack=0;rounded=1;fontSize=14;fontStyle=0;strokeWidth=2;resizeParent=0;resizeLast=1;shadow=0;dashed=0;align=center;arcSize=4;whiteSpace=wrap;html=1;direction=east;" vertex="1" parent="1">
          <mxGeometry x="170" y="500" width="160" height="120" as="geometry" />
        </mxCell>
        <mxCell id="z0_4UOMmBrfsEpAcyiNp-2" value="firstName (string)&lt;br&gt;lastName&amp;nbsp;(string)&lt;br&gt;email&amp;nbsp;(string)&lt;br&gt;password&amp;nbsp;(string)&lt;br&gt;phone (number)" style="align=left;strokeColor=none;fillColor=none;spacingLeft=4;fontSize=12;verticalAlign=top;resizable=0;rotatable=0;part=1;html=1;" vertex="1" parent="z0_4UOMmBrfsEpAcyiNp-1">
          <mxGeometry y="30" width="160" height="90" as="geometry" />
        </mxCell>
        <mxCell id="z0_4UOMmBrfsEpAcyiNp-9" style="edgeStyle=orthogonalEdgeStyle;rounded=0;orthogonalLoop=1;jettySize=auto;html=1;exitX=0.5;exitY=1;exitDx=0;exitDy=0;" edge="1" parent="z0_4UOMmBrfsEpAcyiNp-1" source="z0_4UOMmBrfsEpAcyiNp-2" target="z0_4UOMmBrfsEpAcyiNp-2">
          <mxGeometry relative="1" as="geometry" />
        </mxCell>
        <mxCell id="z0_4UOMmBrfsEpAcyiNp-3" value="Role" style="swimlane;childLayout=stackLayout;horizontal=1;startSize=50;horizontalStack=0;rounded=1;fontSize=14;fontStyle=0;strokeWidth=2;resizeParent=0;resizeLast=1;shadow=0;dashed=0;align=center;arcSize=4;whiteSpace=wrap;html=1;" vertex="1" parent="1">
          <mxGeometry x="580" y="480" width="160" height="120" as="geometry" />
        </mxCell>
        <mxCell id="z0_4UOMmBrfsEpAcyiNp-4" value="name&amp;nbsp;(string)&lt;br&gt;permissions&amp;nbsp;(string)" style="align=left;strokeColor=none;fillColor=none;spacingLeft=4;fontSize=12;verticalAlign=top;resizable=0;rotatable=0;part=1;html=1;" vertex="1" parent="z0_4UOMmBrfsEpAcyiNp-3">
          <mxGeometry y="50" width="160" height="70" as="geometry" />
        </mxCell>
        <mxCell id="z0_4UOMmBrfsEpAcyiNp-5" value="" style="edgeStyle=entityRelationEdgeStyle;fontSize=12;html=1;endArrow=ERmandOne;startArrow=ERmandOne;rounded=0;entryX=1;entryY=0.25;entryDx=0;entryDy=0;exitX=0;exitY=0.25;exitDx=0;exitDy=0;" edge="1" parent="1" source="z0_4UOMmBrfsEpAcyiNp-13" target="z0_4UOMmBrfsEpAcyiNp-2">
          <mxGeometry width="100" height="100" relative="1" as="geometry">
            <mxPoint x="330" y="730" as="sourcePoint" />
            <mxPoint x="410" y="659.8" as="targetPoint" />
          </mxGeometry>
        </mxCell>
        <mxCell id="z0_4UOMmBrfsEpAcyiNp-6" value="has" style="edgeLabel;html=1;align=center;verticalAlign=middle;resizable=0;points=[];fontSize=18;" connectable="0" vertex="1" parent="z0_4UOMmBrfsEpAcyiNp-5">
          <mxGeometry x="-0.1273" y="-2" relative="1" as="geometry">
            <mxPoint as="offset" />
          </mxGeometry>
        </mxCell>
        <mxCell id="z0_4UOMmBrfsEpAcyiNp-12" value="UserRole" style="swimlane;childLayout=stackLayout;horizontal=1;startSize=50;horizontalStack=0;rounded=1;fontSize=14;fontStyle=0;strokeWidth=2;resizeParent=0;resizeLast=1;shadow=0;dashed=0;align=center;arcSize=4;whiteSpace=wrap;html=1;" vertex="1" parent="1">
          <mxGeometry x="420" y="690" width="160" height="120" as="geometry" />
        </mxCell>
        <mxCell id="z0_4UOMmBrfsEpAcyiNp-13" value="time(dateTime)" style="align=left;strokeColor=none;fillColor=none;spacingLeft=4;fontSize=12;verticalAlign=top;resizable=0;rotatable=0;part=1;html=1;" vertex="1" parent="z0_4UOMmBrfsEpAcyiNp-12">
          <mxGeometry y="50" width="160" height="70" as="geometry" />
        </mxCell>
        <mxCell id="z0_4UOMmBrfsEpAcyiNp-15" value="" style="edgeStyle=entityRelationEdgeStyle;fontSize=12;html=1;endArrow=ERmandOne;startArrow=ERmandOne;rounded=0;exitX=1;exitY=0.25;exitDx=0;exitDy=0;" edge="1" parent="1" source="z0_4UOMmBrfsEpAcyiNp-13">
          <mxGeometry width="100" height="100" relative="1" as="geometry">
            <mxPoint x="630" y="770" as="sourcePoint" />
            <mxPoint x="570" y="570" as="targetPoint" />
          </mxGeometry>
        </mxCell>
        <mxCell id="z0_4UOMmBrfsEpAcyiNp-19" value="has" style="edgeLabel;html=1;align=center;verticalAlign=middle;resizable=0;points=[];fontSize=18;" connectable="0" vertex="1" parent="z0_4UOMmBrfsEpAcyiNp-15">
          <mxGeometry x="0.1134" y="-4" relative="1" as="geometry">
            <mxPoint as="offset" />
          </mxGeometry>
        </mxCell>
        <mxCell id="z0_4UOMmBrfsEpAcyiNp-20" value="Would have a lot more for all requirements&amp;nbsp;" style="rounded=0;whiteSpace=wrap;html=1;" vertex="1" parent="1">
          <mxGeometry x="460" y="180" width="120" height="60" as="geometry" />
        </mxCell>
      </root>
    </mxGraphModel>
  </diagram>
</mxfile>
